<svg width="30" height="30" viewBox="0 0 30 30" fill="none" xmlns="http://www.w3.org/2000/svg">
<path d="M19 16C19 18.2091 17.2091 20 15 20C12.7909 20 11 18.2091 11 16C11 13.7909 12.7909 12 15 12C17.2091 12 19 13.7909 19 16Z" fill="#CBD5E1"/>
<path fill-rule="evenodd" clip-rule="evenodd" d="M10.618 5C10.2393 5 9.893 5.214 9.72361 5.55279L9 8H5C3.89543 8 3 8.89543 3 10L3 23C3 24.1046 3.89543 25 5 25H25C26.1046 25 27 24.1046 27 23V10C27 8.89543 26.1046 8 25 8L21 8L20.2764 5.55279C20.107 5.214 19.7607 5 19.382 5L10.618 5ZM21 16C21 19.3137 18.3137 22 15 22C11.6863 22 9 19.3137 9 16C9 12.6863 11.6863 10 15 10C18.3137 10 21 12.6863 21 16Z" fill="#CBD5E1"/>
</svg>
