<svg width="24" height="24" viewBox="0 0 24 24" fill="none" xmlns="http://www.w3.org/2000/svg">
<rect width="24" height="24" rx="12" fill="#E7EFFA"/>
<path d="M18.9328 17.3393C18.0425 15.7768 16.6523 14.5593 14.9861 13.8829C15.8147 13.2614 16.4268 12.395 16.7356 11.4064C17.0444 10.4177 17.0344 9.35698 16.7068 8.37437C16.3793 7.39177 15.7509 6.53713 14.9106 5.93151C14.0704 5.32589 13.0609 5 12.0251 5C10.9894 5 9.97988 5.32589 9.13963 5.93151C8.29938 6.53713 7.67098 7.39177 7.34344 8.37437C7.01591 9.35698 7.00584 10.4177 7.31467 11.4064C7.6235 12.395 8.23557 13.2614 9.06418 13.8829C7.39793 14.5593 6.00779 15.7768 5.11752 17.3393C5.06236 17.428 5.02559 17.5269 5.00941 17.6301C4.99323 17.7333 4.99796 17.8387 5.02332 17.94C5.04868 18.0413 5.09416 18.1365 5.15705 18.2199C5.21993 18.3033 5.29895 18.3732 5.3894 18.4255C5.47984 18.4777 5.57987 18.5113 5.68353 18.5241C5.7872 18.5369 5.89238 18.5288 5.99284 18.5001C6.09329 18.4715 6.18696 18.423 6.26828 18.3574C6.34959 18.2918 6.4169 18.2106 6.46619 18.1185C7.64278 16.0848 9.72065 14.8718 12.0251 14.8718C14.3296 14.8718 16.4075 16.0854 17.5841 18.1185C17.6909 18.2903 17.8603 18.4138 18.0566 18.4629C18.2528 18.512 18.4604 18.4829 18.6356 18.3817C18.8107 18.2805 18.9396 18.1152 18.9951 17.9206C19.0506 17.7261 19.0282 17.5176 18.9328 17.3393ZM8.6486 9.93689C8.6486 9.26907 8.84663 8.61625 9.21765 8.06098C9.58867 7.50571 10.116 7.07294 10.733 6.81737C11.35 6.56181 12.0289 6.49494 12.6839 6.62523C13.3389 6.75551 13.9405 7.0771 14.4127 7.54931C14.8849 8.02153 15.2065 8.62317 15.3368 9.27816C15.4671 9.93314 15.4002 10.612 15.1447 11.229C14.8891 11.846 14.4563 12.3734 13.901 12.7444C13.3458 13.1154 12.693 13.3134 12.0251 13.3134C11.1299 13.3124 10.2717 12.9563 9.6387 12.3233C9.0057 11.6903 8.64963 10.8321 8.6486 9.93689Z" fill="#60A5FA"/>
</svg>
