<svg width="24" height="24" viewBox="0 0 24 24" fill="none" xmlns="http://www.w3.org/2000/svg">
<rect width="24" height="24" rx="12" fill="#E7EFFA"/>
<path d="M19.5193 9.09966C19.5193 8.59852 19.113 8.19221 18.6119 8.19221H17.0628C17.4637 7.79678 17.7203 7.27841 17.7203 6.64C17.7203 5.85392 17.2688 5 16.0016 5C14.3341 5 12.9412 6.77544 12.2867 7.77069C11.6317 6.77567 10.1961 5.00023 8.52887 5.00023C7.26161 5.00023 6.81015 5.85414 6.81015 6.64023C6.81015 7.2784 7.07377 7.79701 7.4828 8.19243H5.90746C5.40631 8.19243 5 8.59875 5 9.09989V11.8161H5.9154V17.7225C5.9154 18.2237 6.3217 18.63 6.82285 18.63H17.7078C18.2089 18.63 18.6153 18.2237 18.6153 17.7225V11.8159H19.5193V9.09966H19.5193ZM16.0016 5.90768C16.5626 5.90768 16.8128 6.14341 16.8128 6.64024C16.8128 7.6482 15.6878 8.19198 14.6297 8.19198H13.0936C13.7383 7.23439 14.8731 5.90768 16.0016 5.90768ZM8.52886 5.9077C9.65751 5.9077 10.8351 7.2344 11.4799 8.19177H9.94334C8.88525 8.19177 7.71758 7.63391 7.71758 6.62595C7.71758 6.12934 7.96781 5.9077 8.52886 5.9077ZM18.6118 10.9085H12.7134V9.09966H18.6118V10.9085ZM5.90744 9.09966H11.8059V10.9085H5.90744V9.09966ZM6.82284 11.8159H11.8059V17.7223H6.82284V11.8159ZM17.708 17.7223H12.7134V11.8159H17.708V17.7223Z" fill="#60A5FA" stroke="#60A5FA" stroke-width="0.5"/>
</svg>
