<svg width="24" height="24" viewBox="0 0 24 24" fill="none" xmlns="http://www.w3.org/2000/svg">
<path d="M12.125 13.2131C12.9444 12.5242 13.5323 11.6 13.8087 10.5658C14.0851 9.53156 14.0367 8.43733 13.6702 7.43151C13.3036 6.42569 12.6365 5.55695 11.7595 4.9431C10.8824 4.32925 9.83778 4 8.76725 4C7.69671 4 6.65207 4.32925 5.77501 4.9431C4.89795 5.55695 4.2309 6.42569 3.86432 7.43151C3.49775 8.43733 3.44939 9.53156 3.72581 10.5658C4.00223 11.6 4.59004 12.5242 5.40954 13.2131C4.12988 13.7917 3.02092 14.6903 2.18963 15.8223C2.03609 16.0315 1.97196 16.2931 2.01133 16.5496C2.05071 16.8061 2.19037 17.0365 2.39959 17.19C2.60881 17.3436 2.87046 17.4077 3.12697 17.3683C3.38348 17.329 3.61384 17.1893 3.76738 16.9801C4.34282 16.1942 5.09543 15.555 5.96414 15.1144C6.83284 14.6738 7.79319 14.4441 8.76725 14.4441C9.74131 14.4441 10.7016 14.6738 11.5704 15.1144C12.4391 15.555 13.1917 16.1942 13.7671 16.9801C13.9207 17.1894 14.1511 17.3292 14.4076 17.3686C14.6642 17.4081 14.926 17.344 15.1353 17.1904C15.3446 17.0369 15.4844 16.8065 15.5239 16.5499C15.5633 16.2933 15.4992 16.0316 15.3457 15.8223C14.5139 14.6905 13.4047 13.7919 12.125 13.2131ZM5.50575 9.22262C5.50575 8.57756 5.69704 7.94698 6.05541 7.41063C6.41379 6.87428 6.92317 6.45625 7.51913 6.20939C8.11509 5.96254 8.77086 5.89795 9.40353 6.0238C10.0362 6.14964 10.6173 6.46027 11.0735 6.9164C11.5296 7.37253 11.8402 7.95367 11.9661 8.58634C12.0919 9.219 12.0273 9.87478 11.7805 10.4707C11.5336 11.0667 11.1156 11.5761 10.5792 11.9345C10.0429 12.2928 9.41231 12.4841 8.76725 12.4841C7.90224 12.4841 7.07267 12.1405 6.46102 11.5288C5.84937 10.9172 5.50575 10.0876 5.50575 9.22262ZM22.3106 17.1864C22.207 17.2625 22.0894 17.3174 21.9646 17.3481C21.8398 17.3788 21.7101 17.3845 21.5831 17.3651C21.456 17.3456 21.334 17.3013 21.2241 17.2347C21.1142 17.1681 21.0184 17.0804 20.9424 16.9768C20.3655 16.1924 19.6126 15.5543 18.7442 15.1139C17.8758 14.6735 16.9162 14.443 15.9425 14.441C15.683 14.441 15.4342 14.3379 15.2507 14.1544C15.0672 13.9709 14.9641 13.7221 14.9641 13.4626C14.9641 13.2031 15.0672 12.9542 15.2507 12.7707C15.4342 12.5872 15.683 12.4841 15.9425 12.4841C16.4228 12.4836 16.8969 12.3769 17.3312 12.1719C17.7654 11.9669 18.1491 11.6685 18.4546 11.298C18.7602 10.9276 18.9802 10.4942 19.099 10.0289C19.2177 9.5636 19.2322 9.07781 19.1414 8.60624C19.0507 8.13467 18.8569 7.68896 18.5739 7.30094C18.291 6.91293 17.9259 6.59219 17.5046 6.36162C17.0833 6.13106 16.6164 5.99637 16.137 5.96717C15.6577 5.93796 15.1778 6.01497 14.7317 6.19269C14.6122 6.24163 14.4842 6.26642 14.3551 6.26564C14.2259 6.26486 14.0982 6.23853 13.9793 6.18816C13.8604 6.1378 13.7526 6.06439 13.6622 5.97218C13.5718 5.87996 13.5006 5.77076 13.4526 5.65088C13.4046 5.53099 13.3808 5.4028 13.3826 5.27367C13.3844 5.14455 13.4117 5.01706 13.463 4.89855C13.5143 4.78004 13.5885 4.67285 13.6815 4.58318C13.7744 4.4935 13.8841 4.4231 14.0044 4.37604C15.1559 3.91499 16.4341 3.87921 17.6096 4.27514C18.7852 4.67107 19.7813 5.4728 20.4193 6.53658C21.0572 7.60036 21.2954 8.85662 21.0911 10.0801C20.8868 11.3036 20.2533 12.4143 19.3043 13.2131C20.584 13.7917 21.6929 14.6903 22.5242 15.8223C22.6762 16.0317 22.7391 16.2928 22.6991 16.5484C22.659 16.8041 22.5193 17.0335 22.3106 17.1864Z" fill="#CBD5E1"/>
</svg>
