<svg width="24" height="24" viewBox="0 0 24 24" fill="none" xmlns="http://www.w3.org/2000/svg">
<rect width="24" height="24" rx="12" fill="#E7EFFA"/>
<path d="M11.6115 13.8359C12.3085 13.2501 12.8085 12.464 13.0436 11.5844C13.2787 10.7047 13.2375 9.77406 12.9257 8.91858C12.614 8.06311 12.0466 7.32422 11.3007 6.80213C10.5547 6.28004 9.66622 6 8.7557 6C7.84518 6 6.9567 6.28004 6.21073 6.80213C5.46477 7.32422 4.89743 8.06311 4.58565 8.91858C4.27387 9.77406 4.23274 10.7047 4.46784 11.5844C4.70294 12.464 5.20289 13.2501 5.89989 13.8359C4.81151 14.3281 3.86831 15.0924 3.16129 16.0551C3.0307 16.233 2.97615 16.4556 3.00964 16.6737C3.04313 16.8919 3.16191 17.0878 3.33986 17.2184C3.51781 17.349 3.74034 17.4036 3.95851 17.3701C4.17668 17.3366 4.37261 17.2178 4.5032 17.0399C4.99262 16.3714 5.63273 15.8278 6.37159 15.453C7.11045 15.0783 7.92724 14.883 8.7557 14.883C9.58416 14.883 10.401 15.0783 11.1398 15.453C11.8787 15.8278 12.5188 16.3714 13.0082 17.0399C13.1388 17.2179 13.3348 17.3368 13.553 17.3703C13.7712 17.4039 13.9938 17.3494 14.1719 17.2188C14.3499 17.0882 14.4688 16.8922 14.5024 16.674C14.5359 16.4558 14.4814 16.2331 14.3508 16.0551C13.6434 15.0925 12.7 14.3282 11.6115 13.8359ZM5.98173 10.442C5.98173 9.89332 6.14442 9.357 6.44922 8.90082C6.75403 8.44464 7.18727 8.0891 7.69415 7.87914C8.20102 7.66919 8.75878 7.61425 9.29688 7.72129C9.83497 7.82832 10.3292 8.09252 10.7172 8.48046C11.1051 8.86841 11.3693 9.36269 11.4764 9.90078C11.5834 10.4389 11.5285 10.9966 11.3185 11.5035C11.1086 12.0104 10.753 12.4436 10.2968 12.7484C9.84066 13.0532 9.30434 13.2159 8.7557 13.2159C8.02 13.2159 7.31442 12.9237 6.7942 12.4035C6.27398 11.8832 5.98173 11.1777 5.98173 10.442ZM20.2746 17.2153C20.1865 17.2801 20.0865 17.3268 19.9804 17.3529C19.8742 17.379 19.7639 17.3839 19.6559 17.3673C19.5478 17.3508 19.444 17.3131 19.3505 17.2564C19.2571 17.1998 19.1756 17.1252 19.111 17.0371C18.6203 16.3699 17.9799 15.8272 17.2414 15.4526C16.5028 15.078 15.6866 14.882 14.8584 14.8803C14.6377 14.8803 14.4261 14.7926 14.27 14.6366C14.1139 14.4805 14.0263 14.2688 14.0263 14.0481C14.0263 13.8274 14.1139 13.6157 14.27 13.4597C14.4261 13.3036 14.6377 13.2159 14.8584 13.2159C15.2669 13.2155 15.6702 13.1248 16.0395 12.9504C16.4089 12.776 16.7352 12.5222 16.9951 12.2072C17.255 11.8921 17.4421 11.5235 17.5431 11.1277C17.644 10.732 17.6564 10.3188 17.5792 9.91771C17.502 9.51663 17.3372 9.13754 17.0965 8.80753C16.8559 8.47751 16.5453 8.20471 16.187 8.00862C15.8287 7.81252 15.4316 7.69796 15.0239 7.67312C14.6162 7.64828 14.208 7.71378 13.8286 7.86494C13.727 7.90656 13.6181 7.92764 13.5083 7.92698C13.3984 7.92632 13.2898 7.90392 13.1887 7.86108C13.0875 7.81825 12.9959 7.75581 12.919 7.67738C12.8421 7.59895 12.7815 7.50608 12.7407 7.40411C12.6999 7.30215 12.6796 7.19311 12.6812 7.08329C12.6827 6.97347 12.7059 6.86503 12.7495 6.76424C12.7932 6.66344 12.8563 6.57228 12.9354 6.496C13.0144 6.41973 13.1077 6.35986 13.21 6.31983C14.1894 5.92769 15.2765 5.89727 16.2764 6.23401C17.2762 6.57076 18.1234 7.25265 18.666 8.15742C19.2086 9.06219 19.4112 10.1307 19.2374 11.1713C19.0637 12.2119 18.5249 13.1566 17.7177 13.8359C18.8061 14.3281 19.7493 15.0924 20.4563 16.0551C20.5856 16.2332 20.6391 16.4553 20.605 16.6727C20.571 16.8902 20.4522 17.0853 20.2746 17.2153Z" fill="#60A5FA"/>
</svg>
