<svg width="25" height="24" viewBox="0 0 25 24" fill="none" xmlns="http://www.w3.org/2000/svg">
<path d="M5.5 7.33333H18.8333M10.5 10.6667V15.6667M13.8333 10.6667V15.6667M6.33333 7.33333L7.16667 17.3333C7.16667 17.7754 7.34226 18.1993 7.65482 18.5118C7.96738 18.8244 8.39131 19 8.83333 19H15.5C15.942 19 16.366 18.8244 16.6785 18.5118C16.9911 18.1993 17.1667 17.7754 17.1667 17.3333L18 7.33333M9.66667 7.33333V4.83333C9.66667 4.61232 9.75446 4.40036 9.91074 4.24408C10.067 4.0878 10.279 4 10.5 4H13.8333C14.0543 4 14.2663 4.0878 14.4226 4.24408C14.5789 4.40036 14.6667 4.61232 14.6667 4.83333V7.33333" stroke="#A8A29E" stroke-width="1.2" stroke-linecap="round" stroke-linejoin="round"/>
</svg>
